<?xml version="1.0" encoding="UTF-8" standalone="no"?>
<!DOCTYPE svg PUBLIC "-//W3C//DTD SVG 1.1//EN" "http://www.w3.org/Graphics/SVG/1.1/DTD/svg11.dtd">
<svg version="1.1" xmlns="http://www.w3.org/2000/svg" xmlns:xlink="http://www.w3.org/1999/xlink" preserveAspectRatio="xMidYMid meet" viewBox="0 0 300 640" width="375" height="800"><defs><path d="M22.42 393.91C23.95 398.28 32.49 401.41 38.05 403.3C43.48 405.15 54.47 386.09 64.31 378.31C83.83 362.86 107.74 349.09 137.15 332.12C156.11 321.19 189.83 313.74 190.03 313.08C190.68 310.88 190.36 289.22 176.01 292.7C161.65 296.18 59.06 360.97 59.57 359.41C161.38 47.91 189.42 67.42 190.03 35.11C190.64 2.8 165.64 23.28 165.64 26.21C165.64 29.13 56.85 312.26 41.58 352.03C26.3 391.8 20.27 387.75 22.42 393.91Z" id="a2wPPiAS4J"></path><clipPath id="clipa351kPbiU6"><use xlink:href="#a2wPPiAS4J" opacity="1"></use></clipPath><path d="M110.21 613.37C111.74 617.73 120.28 620.86 125.84 622.75C131.27 624.6 142.26 605.54 152.1 597.76C171.62 582.32 195.52 568.55 224.94 551.58C243.9 540.64 277.62 533.19 277.81 532.53C278.47 530.34 278.15 508.67 263.79 512.15C249.44 515.63 146.84 580.42 147.35 578.86C249.16 267.36 277.21 286.87 277.81 254.56C278.42 222.25 253.43 242.73 253.43 245.66C253.43 248.59 144.64 531.71 129.36 571.48C114.09 611.26 108.05 607.2 110.21 613.37Z" id="g42u2Ic8OW"></path><clipPath id="clipa1wNa9ShV"><use xlink:href="#g42u2Ic8OW" opacity="1"></use></clipPath></defs><g><g><g><g><use xlink:href="#a2wPPiAS4J" opacity="1" fill="#c09300" fill-opacity="1"></use><g clip-path="url(#clipa351kPbiU6)"><use xlink:href="#a2wPPiAS4J" opacity="1" fill-opacity="0" stroke="#c09300" stroke-width="2" stroke-opacity="1"></use></g></g><g><use xlink:href="#g42u2Ic8OW" opacity="1" fill="#c09300" fill-opacity="1"></use><g clip-path="url(#clipa1wNa9ShV)"><use xlink:href="#g42u2Ic8OW" opacity="1" fill-opacity="0" stroke="#c09300" stroke-width="2" stroke-opacity="1"></use></g></g></g></g></g></svg>